<svg width="1054" height="1454" viewBox="0 0 1054 1454" fill="none" xmlns="http://www.w3.org/2000/svg">
<g clip-path="url(#clip0_233_493)">
<path d="M100.152 501.947C-21.8098 412.807 2.13201 307.518 29.3482 266.016L403.42 -381.896L2632.78 905.225L2258.71 1553.14C2236.37 1597.46 2157.16 1670.84 2018.98 1609.78C1846.26 1533.47 1815.18 1597.45 1761.56 1632.81C1707.95 1668.17 1639.68 1695.08 1523.33 1575.24C1406.99 1455.4 1278.37 1363.59 1120.31 1397.17C993.872 1424.03 908.436 1386.02 878.824 1368.92C849.211 1351.83 773.572 1296.84 733.618 1173.91C683.674 1020.24 539.851 954.76 377.895 913.919C215.939 873.077 205.106 800.506 208.922 736.391C212.737 672.276 252.605 613.372 100.152 501.947Z" fill="#D2EFFF"/>
<path d="M231.097 363.872C145.084 264.293 186.061 179.637 217.301 149.756L661.885 -326.701L2301.29 1203.04L1856.71 1679.5C1829.06 1712.73 1747.44 1759.46 1642.15 1680.54C1510.54 1581.88 1471.62 1630.08 1419.18 1649.57C1366.73 1669.06 1303.52 1678.5 1228.3 1553.97C1153.07 1429.44 1061.93 1326.28 921.21 1323.77C808.633 1321.76 743.587 1272.74 721.81 1252.42C700.034 1232.1 646.631 1170.6 636.845 1058.43C624.611 918.218 515.403 834.427 385.971 767.989C256.54 701.552 261.587 637.838 277.405 584.176C293.223 530.513 338.614 488.346 231.097 363.872Z" fill="black"/>
<path d="M231.097 363.872C145.084 264.293 186.061 179.637 217.301 149.756L661.885 -326.701L2301.29 1203.04L1856.71 1679.5C1829.06 1712.73 1747.44 1759.46 1642.15 1680.54C1510.54 1581.88 1471.62 1630.08 1419.18 1649.57C1366.73 1669.06 1303.52 1678.5 1228.3 1553.97C1153.07 1429.44 1061.93 1326.28 921.21 1323.77C808.633 1321.76 743.587 1272.74 721.81 1252.42C700.034 1232.1 646.631 1170.6 636.845 1058.43C624.611 918.218 515.403 834.427 385.971 767.989C256.54 701.552 261.587 637.838 277.405 584.176C293.223 530.513 338.614 488.346 231.097 363.872Z" fill="url(#paint0_linear_233_493)"/>
<path d="M350.178 -370.381C316.033 -497.458 389.75 -555.867 430.877 -569.187L1038.43 -804.865L1849.36 1285.63L1241.81 1521.31C1202.46 1539.21 1108.63 1545.79 1048.15 1428.93C972.549 1282.85 916.534 1309.32 860.836 1304.06C805.138 1298.81 744.112 1279.81 730.533 1134.96C716.955 990.111 679.75 857.585 554.127 794.121C453.63 743.35 416.378 670.916 405.606 643.148C394.835 615.38 373.496 536.773 413.467 431.512C463.431 299.936 401.534 176.988 313.88 60.8715C226.226 -55.2453 258.48 -110.423 296.062 -151.865C333.645 -193.307 392.858 -211.535 350.178 -370.381Z" fill="#8ED0F4"/>
</g>
<defs>
<linearGradient id="paint0_linear_233_493" x1="-586.042" y1="-118.529" x2="1405.03" y2="1486.73" gradientUnits="userSpaceOnUse">
<stop stop-color="#B3E4FF"/>
<stop offset="0.505208" stop-color="#A5DEFD"/>
<stop offset="1" stop-color="#165F87"/>
</linearGradient>
<clipPath id="clip0_233_493">
<rect width="1054" height="1454" fill="white"/>
</clipPath>
</defs>
</svg>
