<svg width="144" height="47" viewBox="0 0 144 47" fill="none" xmlns="http://www.w3.org/2000/svg">
<path d="M139.172 28.6858L143.145 31.3308C141.855 33.2275 138.771 36.4817 133.439 36.4817C126.818 36.4817 121.887 31.3657 121.887 24.8575C121.887 17.9319 126.87 13.2335 132.882 13.2335C138.928 13.2335 141.89 18.0361 142.849 20.6289L143.371 21.9515L127.794 28.3899C128.979 30.7218 130.826 31.9051 133.439 31.9051C136.053 31.9051 137.865 30.6174 139.172 28.6858ZM126.957 24.4924L137.36 20.1766C136.785 18.7325 135.077 17.7059 133.038 17.7059C130.442 17.7059 126.835 20.0029 126.957 24.4924Z" fill="#FF302F"/>
<path d="M114.378 1.38321H119.396V35.4203H114.378V1.38321Z" fill="#20B15A"/>
<path d="M106.467 14.1382H111.311V34.811C111.311 43.3897 106.24 46.9222 100.246 46.9222C94.6005 46.9222 91.2028 43.1288 89.9307 40.0488L94.3739 38.2041C95.1753 40.1008 97.1095 42.3458 100.246 42.3458C104.097 42.3458 106.467 39.9617 106.467 35.5071V33.8367H106.292C105.142 35.2286 102.947 36.4814 100.159 36.4814C94.339 36.4814 89.0068 31.4176 89.0068 24.8924C89.0068 18.3319 94.339 13.2161 100.159 13.2161C102.929 13.2161 105.142 14.4516 106.292 15.8089H106.467V14.1382ZM106.815 24.8924C106.815 20.7856 104.079 17.7925 100.594 17.7925C97.0746 17.7925 94.1124 20.7856 94.1124 24.8924C94.1124 28.9466 97.0746 31.8875 100.594 31.8875C104.08 31.9051 106.815 28.9466 106.815 24.8924" fill="#3686F7"/>
<path d="M61.458 24.8052C61.458 31.5048 56.2308 36.4292 49.8184 36.4292C43.4062 36.4292 38.1787 31.4875 38.1787 24.8052C38.1787 18.071 43.4062 13.1639 49.8184 13.1639C56.2308 13.1639 61.458 18.071 61.458 24.8052ZM56.3701 24.8052C56.3701 20.6291 53.338 17.7576 49.8184 17.7576C46.2987 17.7576 43.2667 20.6291 43.2667 24.8052C43.2667 28.9466 46.2987 31.8528 49.8184 31.8528C53.3383 31.8528 56.3701 28.9466 56.3701 24.8052Z" fill="#FF302F"/>
<path d="M86.8809 24.8575C86.8809 31.557 81.6533 36.4814 75.2412 36.4814C68.8288 36.4814 63.6016 31.5568 63.6016 24.8575C63.6016 18.1232 68.8288 13.2335 75.2412 13.2335C81.6533 13.2335 86.8809 18.1059 86.8809 24.8575ZM81.7753 24.8575C81.7753 20.6814 78.7435 17.8098 75.2236 17.8098C71.7037 17.8098 68.6719 20.6814 68.6719 24.8575C68.6719 28.9989 71.704 31.9051 75.2236 31.9051C78.7608 31.9051 81.7753 28.9816 81.7753 24.8575Z" fill="#FFBA40"/>
<path d="M19.0468 31.383C11.7458 31.383 6.0307 25.5013 6.0307 18.2101C6.0307 10.9191 11.7458 5.03746 19.0468 5.03746C22.9849 5.03746 25.8598 6.58609 27.9856 8.56993L31.4881 5.07237C28.526 2.236 24.5706 0.0778503 19.0468 0.0778503C9.04516 0.0781297 0.628906 8.22216 0.628906 18.2101C0.628906 28.198 9.04516 36.3423 19.0468 36.3423C24.4486 36.3423 28.526 34.5674 31.7147 31.2612C34.9904 27.9896 36.001 23.3957 36.001 19.6719C36.001 18.5059 35.8617 17.3053 35.7048 16.4179H19.0468V21.2554H30.913C30.5645 24.2834 29.6062 26.3541 28.1948 27.7634C26.4872 29.4863 23.7865 31.383 19.0468 31.383Z" fill="#3686F7"/>
</svg>
