<svg width="34" height="35" viewBox="0 0 34 35" fill="none" xmlns="http://www.w3.org/2000/svg">
<path d="M14.7687 23.535L26.775 13.93L23.7469 11.5075L14.7687 18.69L10.3063 15.12L7.27813 17.5425L14.7687 23.535ZM17 34.5C12.0771 33.5083 8.01338 31.2485 4.80888 27.7204C1.60438 24.1923 0.00141667 20.2755 0 15.97V5.6L17 0.5L34 5.6V15.97C34 20.2767 32.3978 24.194 29.1933 27.7221C25.9888 31.2502 21.9243 33.5095 17 34.5ZM17 30.93C20.6833 29.995 23.7292 28.125 26.1375 25.32C28.5458 22.515 29.75 19.3983 29.75 15.97V7.9375L17 4.1125L4.25 7.9375V15.97C4.25 19.3983 5.45417 22.515 7.8625 25.32C10.2708 28.125 13.3167 29.995 17 30.93Z" fill="#117501"/>
</svg>
