<svg width="1440" height="1389" viewBox="0 0 1440 1389" fill="none" xmlns="http://www.w3.org/2000/svg">
<path d="M0.0926538 1120.73C-1.48391 1145.79 16.4559 1197.98 100.455 1206.18C189.136 1214.84 200.894 1241.78 212.095 1267.44C214.156 1272.17 216.199 1276.85 218.698 1281.36C234.779 1310.41 260.319 1339.45 350.184 1316.39C440.048 1293.32 528.02 1285.63 595.182 1340.31C648.912 1384.05 700.923 1389 720.046 1389C739.17 1389 791.181 1384.05 844.91 1340.31C912.072 1285.63 1000.04 1293.32 1089.91 1316.39C1179.77 1339.45 1205.31 1310.41 1221.39 1281.36C1223.89 1276.85 1225.94 1272.17 1228 1267.44C1239.2 1241.78 1250.96 1214.84 1339.64 1206.18C1423.64 1197.98 1441.48 1145.81 1439.91 1120.75V0H1438.75C1433.37 26.7275 1409.17 63.6416 1339.64 70.4303C1250.96 79.0885 1239.2 106.028 1228 131.692C1225.94 136.414 1223.89 141.094 1221.39 145.608C1205.31 174.653 1179.77 203.699 1089.91 180.633C1000.04 157.568 912.072 149.879 844.91 204.553C791.181 248.293 739.17 253.248 720.046 253.248C700.923 253.248 648.912 248.293 595.182 204.553C528.02 149.879 440.048 157.568 350.184 180.633C260.319 203.699 234.779 174.653 218.698 145.608C216.199 141.094 214.156 136.414 212.095 131.692C200.894 106.028 189.136 79.0885 100.455 70.4303C30.9243 63.6416 6.71976 26.7275 1.3386 0H0.185715L0.0926538 1120.73Z" fill="#F2F0F4"/>
</svg>
