<svg width="1440" height="894" viewBox="0 0 1440 894" fill="none" xmlns="http://www.w3.org/2000/svg">
<path d="M0.0926538 721.333C-1.48391 737.462 16.4559 771.055 100.455 776.333C189.136 781.906 200.894 799.245 212.095 815.763C214.156 818.803 216.199 821.814 218.698 824.72C234.779 843.414 260.319 862.109 350.184 847.263C440.048 832.417 528.02 827.469 595.182 862.659C648.912 890.811 700.923 894 720.046 894C739.17 894 791.181 890.811 844.91 862.659C912.072 827.469 1000.04 832.417 1089.91 847.263C1179.77 862.109 1205.31 843.414 1221.39 824.72C1223.89 821.814 1225.94 818.803 1228 815.763C1239.2 799.245 1250.96 781.906 1339.64 776.333C1423.64 771.055 1441.48 737.478 1439.91 721.349V0H1438.75C1433.37 17.2026 1409.17 40.9616 1339.64 45.3309C1250.96 50.9036 1239.2 68.2428 1228 84.7606C1225.94 87.8001 1223.89 90.8118 1221.39 93.7172C1205.31 112.412 1179.77 131.107 1089.91 116.261C1000.04 101.415 912.072 96.4665 844.91 131.656C791.181 159.808 739.17 162.998 720.046 162.998C700.923 162.998 648.912 159.808 595.182 131.656C528.02 96.4665 440.048 101.415 350.184 116.261C260.319 131.107 234.779 112.412 218.698 93.7172C216.199 90.8118 214.156 87.8001 212.095 84.7606C200.894 68.2428 189.136 50.9036 100.455 45.3309C30.9243 40.9616 6.71976 17.2026 1.3386 0H0.185715L0.0926538 721.333Z" fill="#F2F0F4"/>
</svg>
