<svg width="310" height="26" viewBox="0 0 310 26" fill="none" xmlns="http://www.w3.org/2000/svg">
<path d="M97.5077 20.2404L103.323 23.9325C104.073 24.4055 104.996 23.7017 104.776 22.8364L103.092 16.2138C103.046 16.0302 103.054 15.8375 103.113 15.6579C103.172 15.4783 103.281 15.319 103.426 15.1985L108.641 10.8488C109.322 10.2835 108.976 9.14125 108.088 9.08356L101.28 8.64513C101.095 8.63432 100.916 8.56965 100.767 8.459C100.617 8.34836 100.503 8.19654 100.438 8.0221L97.8999 1.63027C97.8327 1.44556 97.7103 1.28599 97.5493 1.17324C97.3883 1.06048 97.1966 1 97 1C96.8034 1 96.6117 1.06048 96.4507 1.17324C96.2897 1.28599 96.1673 1.44556 96.1001 1.63027L93.5618 8.0221C93.4971 8.19654 93.383 8.34836 93.2334 8.459C93.0839 8.56965 92.9053 8.63432 92.7196 8.64513L85.9124 9.08356C85.024 9.14125 84.6778 10.2835 85.3586 10.8488L90.5736 15.1985C90.7193 15.319 90.8281 15.4783 90.8873 15.6579C90.9465 15.8375 90.9537 16.0302 90.9081 16.2138L89.3506 22.3518C89.0852 23.3902 90.1928 24.2324 91.0812 23.6671L96.4923 20.2404C96.6441 20.1439 96.8202 20.0927 97 20.0927C97.1798 20.0927 97.3559 20.1439 97.5077 20.2404Z" fill="#FAB200" stroke="#FAB200" stroke-width="2" stroke-linecap="round" stroke-linejoin="round"/>
<path d="M126.508 20.2404L132.323 23.9325C133.073 24.4055 133.996 23.7017 133.776 22.8364L132.092 16.2138C132.046 16.0302 132.054 15.8375 132.113 15.6579C132.172 15.4783 132.281 15.319 132.426 15.1985L137.641 10.8488C138.322 10.2835 137.976 9.14125 137.088 9.08356L130.28 8.64513C130.095 8.63432 129.916 8.56965 129.767 8.459C129.617 8.34836 129.503 8.19654 129.438 8.0221L126.9 1.63027C126.833 1.44556 126.71 1.28599 126.549 1.17324C126.388 1.06048 126.197 1 126 1C125.803 1 125.612 1.06048 125.451 1.17324C125.29 1.28599 125.167 1.44556 125.1 1.63027L122.562 8.0221C122.497 8.19654 122.383 8.34836 122.233 8.459C122.084 8.56965 121.905 8.63432 121.72 8.64513L114.912 9.08356C114.024 9.14125 113.678 10.2835 114.359 10.8488L119.574 15.1985C119.719 15.319 119.828 15.4783 119.887 15.6579C119.946 15.8375 119.954 16.0302 119.908 16.2138L118.351 22.3518C118.085 23.3902 119.193 24.2324 120.081 23.6671L125.492 20.2404C125.644 20.1439 125.82 20.0927 126 20.0927C126.18 20.0927 126.356 20.1439 126.508 20.2404Z" fill="#FAB200" stroke="#FAB200" stroke-width="2" stroke-linecap="round" stroke-linejoin="round"/>
<path d="M155.508 20.2404L161.323 23.9325C162.073 24.4055 162.996 23.7017 162.776 22.8364L161.092 16.2138C161.046 16.0302 161.054 15.8375 161.113 15.6579C161.172 15.4783 161.281 15.319 161.426 15.1985L166.641 10.8488C167.322 10.2835 166.976 9.14125 166.088 9.08356L159.28 8.64513C159.095 8.63432 158.916 8.56965 158.767 8.459C158.617 8.34836 158.503 8.19654 158.438 8.0221L155.9 1.63027C155.833 1.44556 155.71 1.28599 155.549 1.17324C155.388 1.06048 155.197 1 155 1C154.803 1 154.612 1.06048 154.451 1.17324C154.29 1.28599 154.167 1.44556 154.1 1.63027L151.562 8.0221C151.497 8.19654 151.383 8.34836 151.233 8.459C151.084 8.56965 150.905 8.63432 150.72 8.64513L143.912 9.08356C143.024 9.14125 142.678 10.2835 143.359 10.8488L148.574 15.1985C148.719 15.319 148.828 15.4783 148.887 15.6579C148.946 15.8375 148.954 16.0302 148.908 16.2138L147.351 22.3518C147.085 23.3902 148.193 24.2324 149.081 23.6671L154.492 20.2404C154.644 20.1439 154.82 20.0927 155 20.0927C155.18 20.0927 155.356 20.1439 155.508 20.2404Z" fill="#FAB200" stroke="#FAB200" stroke-width="2" stroke-linecap="round" stroke-linejoin="round"/>
<path d="M184.508 20.2404L190.323 23.9325C191.073 24.4055 191.996 23.7017 191.776 22.8364L190.092 16.2138C190.046 16.0302 190.054 15.8375 190.113 15.6579C190.172 15.4783 190.281 15.319 190.426 15.1985L195.641 10.8488C196.322 10.2835 195.976 9.14125 195.088 9.08356L188.28 8.64513C188.095 8.63432 187.916 8.56965 187.767 8.459C187.617 8.34836 187.503 8.19654 187.438 8.0221L184.9 1.63027C184.833 1.44556 184.71 1.28599 184.549 1.17324C184.388 1.06048 184.197 1 184 1C183.803 1 183.612 1.06048 183.451 1.17324C183.29 1.28599 183.167 1.44556 183.1 1.63027L180.562 8.0221C180.497 8.19654 180.383 8.34836 180.233 8.459C180.084 8.56965 179.905 8.63432 179.72 8.64513L172.912 9.08356C172.024 9.14125 171.678 10.2835 172.359 10.8488L177.574 15.1985C177.719 15.319 177.828 15.4783 177.887 15.6579C177.946 15.8375 177.954 16.0302 177.908 16.2138L176.351 22.3518C176.085 23.3902 177.193 24.2324 178.081 23.6671L183.492 20.2404C183.644 20.1439 183.82 20.0927 184 20.0927C184.18 20.0927 184.356 20.1439 184.508 20.2404Z" fill="#FAB200" stroke="#FAB200" stroke-width="2" stroke-linecap="round" stroke-linejoin="round"/>
<path d="M213.508 20.2404L219.323 23.9325C220.073 24.4055 220.996 23.7017 220.776 22.8364L219.092 16.2138C219.046 16.0302 219.054 15.8375 219.113 15.6579C219.172 15.4783 219.281 15.319 219.426 15.1985L224.641 10.8488C225.322 10.2835 224.976 9.14125 224.088 9.08356L217.28 8.64513C217.095 8.63432 216.916 8.56965 216.767 8.459C216.617 8.34836 216.503 8.19654 216.438 8.0221L213.9 1.63027C213.833 1.44556 213.71 1.28599 213.549 1.17324C213.388 1.06048 213.197 1 213 1C212.803 1 212.612 1.06048 212.451 1.17324C212.29 1.28599 212.167 1.44556 212.1 1.63027L209.562 8.0221C209.497 8.19654 209.383 8.34836 209.233 8.459C209.084 8.56965 208.905 8.63432 208.72 8.64513L201.912 9.08356C201.024 9.14125 200.678 10.2835 201.359 10.8488L206.574 15.1985C206.719 15.319 206.828 15.4783 206.887 15.6579C206.946 15.8375 206.954 16.0302 206.908 16.2138L205.351 22.3518C205.085 23.3902 206.193 24.2324 207.081 23.6671L212.492 20.2404C212.644 20.1439 212.82 20.0927 213 20.0927C213.18 20.0927 213.356 20.1439 213.508 20.2404Z" fill="#FAB200" stroke="#FAB200" stroke-width="2" stroke-linecap="round" stroke-linejoin="round"/>
</svg>
